# xmcd CD database file
#
# Track frame offsets:
#	150
#	14609
#	32958
#	44670
#	68510
#	88557
#	107754
#	125048
#	142483
#	161378
#	181504
#	201741
#	215375
#	235756
#
# Disc length: 3360 seconds
#
# Revision: 0
# Processed by: cddbd v1.5.2PL0 Copyright (c) Steve Scherf et al.
# Submitted via: CDex 1.51
#
DISCID=ce0d1e0e
DTITLE=Pippa Wilson - Gotta Right To Swing The Blues
DYEAR=2013
DGENRE=Jazz
TTITLE0=I Got a Right To Sing The Blues
TTITLE1=I Can't Stop Loving You
TTITLE2=I Got Rythm
TTITLE3=Stardust
TTITLE4=Is You Is or Is You Ain't My Baby
TTITLE5=Blues in the Night
TTITLE6=The Lady is a Tramp
TTITLE7=Mood Indigo
TTITLE8=You Don't Know Me
TTITLE9=I Ain't Got Nothing But The Blues
TTITLE10=Georgia on My Nibd
TTITLE11=You Came a Long Way From St Louis
TTITLE12=What a Difference a Day Made
TTITLE13=Hallelujah
EXTD=YEAR: 2013
EXTT0=
EXTT1=
EXTT2=
EXTT3=
EXTT4=
EXTT5=
EXTT6=
EXTT7=
EXTT8=
EXTT9=
EXTT10=
EXTT11=
EXTT12=
EXTT13=
PLAYORDER=
